<svg width="28" height="24" viewBox="0 0 28 24" fill="none" xmlns="http://www.w3.org/2000/svg">
<path d="M1.92485 10.3319C9.44103 6.94501 14.453 4.71214 16.9607 3.63333C24.1209 0.553096 25.6087 0.018028 26.5784 0.00017129C26.7917 -0.00352627 27.2686 0.0511434 27.5775 0.310393C27.8383 0.529298 27.9101 0.825008 27.9444 1.03255C27.9788 1.2401 28.0215 1.7129 27.9876 2.08232C27.5995 6.29892 25.9206 16.5315 25.0665 21.2542C24.7051 23.2525 23.9934 23.9225 23.3045 23.9881C21.8072 24.1306 20.6703 22.9647 19.2201 21.9815C16.9509 20.443 15.669 19.4853 13.4663 17.984C10.9207 16.2491 12.5709 15.2955 14.0216 13.7371C14.4013 13.3292 20.9982 7.12313 21.1259 6.56014C21.1419 6.48973 21.1567 6.22727 21.0059 6.08868C20.8552 5.9501 20.6327 5.99749 20.4721 6.03518C20.2445 6.08861 16.6194 8.56679 9.59681 13.4697C8.56784 14.2005 7.63583 14.5566 6.80078 14.5379C5.8802 14.5174 4.10939 13.9996 2.79297 13.557C1.17832 13.0142 -0.104962 12.7271 0.00678326 11.8052C0.0649872 11.325 0.704344 10.8339 1.92485 10.3319Z" fill="#2C2B2A"/>
</svg>
